<mxfile host="app.diagrams.net" agent="Mozilla/5.0 (Windows NT 10.0; Win64; x64) AppleWebKit/537.36 (KHTML, like Gecko) Chrome/128.0.0.0 Safari/537.36" version="24.7.17">
  <diagram name="Page-1" id="a829g7um9hGZm7ruaQSQ">
    <mxGraphModel dx="1434" dy="738" grid="1" gridSize="10" guides="1" tooltips="1" connect="1" arrows="1" fold="1" page="1" pageScale="1" pageWidth="850" pageHeight="1100" math="0" shadow="0">
      <root>
        <mxCell id="0" />
        <mxCell id="1" parent="0" />
        <mxCell id="ebHh1HvQFMSa12n-kMiA-26" value="" style="rounded=0;whiteSpace=wrap;html=1;" vertex="1" parent="1">
          <mxGeometry x="70" y="510" width="690" height="340" as="geometry" />
        </mxCell>
        <mxCell id="ebHh1HvQFMSa12n-kMiA-12" value="" style="rounded=0;whiteSpace=wrap;html=1;" vertex="1" parent="1">
          <mxGeometry x="180" y="170" width="120" height="60" as="geometry" />
        </mxCell>
        <mxCell id="ebHh1HvQFMSa12n-kMiA-1" value="" style="rounded=0;whiteSpace=wrap;html=1;" vertex="1" parent="1">
          <mxGeometry x="100" y="40" width="700" height="240" as="geometry" />
        </mxCell>
        <mxCell id="ebHh1HvQFMSa12n-kMiA-2" value="ToDo" style="text;strokeColor=none;fillColor=none;html=1;fontSize=24;fontStyle=1;verticalAlign=middle;align=center;" vertex="1" parent="1">
          <mxGeometry x="380" y="80" width="100" height="40" as="geometry" />
        </mxCell>
        <mxCell id="ebHh1HvQFMSa12n-kMiA-3" value="" style="rounded=0;whiteSpace=wrap;html=1;" vertex="1" parent="1">
          <mxGeometry x="260" y="120" width="250" height="30" as="geometry" />
        </mxCell>
        <mxCell id="ebHh1HvQFMSa12n-kMiA-4" value="&lt;font style=&quot;font-size: 16px; font-weight: normal;&quot;&gt;Enter a new task&lt;/font&gt;" style="text;strokeColor=none;fillColor=none;html=1;fontSize=24;fontStyle=1;verticalAlign=middle;align=center;" vertex="1" parent="1">
          <mxGeometry x="280" y="115" width="200" height="40" as="geometry" />
        </mxCell>
        <mxCell id="ebHh1HvQFMSa12n-kMiA-5" value="" style="rounded=0;whiteSpace=wrap;html=1;" vertex="1" parent="1">
          <mxGeometry x="540" y="115" width="100" height="35" as="geometry" />
        </mxCell>
        <mxCell id="ebHh1HvQFMSa12n-kMiA-6" value="&lt;font style=&quot;font-size: 16px; font-weight: normal;&quot;&gt;Add Button&lt;/font&gt;" style="text;strokeColor=none;fillColor=none;html=1;fontSize=24;fontStyle=1;verticalAlign=middle;align=center;" vertex="1" parent="1">
          <mxGeometry x="535" y="115" width="110" height="40" as="geometry" />
        </mxCell>
        <mxCell id="ebHh1HvQFMSa12n-kMiA-7" value="" style="rounded=0;whiteSpace=wrap;html=1;" vertex="1" parent="1">
          <mxGeometry x="180" y="170" width="490" height="60" as="geometry" />
        </mxCell>
        <mxCell id="ebHh1HvQFMSa12n-kMiA-8" value="&lt;font style=&quot;font-size: 23px;&quot;&gt;List of items to do&lt;/font&gt;&lt;div style=&quot;font-size: 23px;&quot;&gt;&lt;br&gt;&lt;/div&gt;" style="text;strokeColor=none;fillColor=none;html=1;fontSize=24;fontStyle=1;verticalAlign=middle;align=center;" vertex="1" parent="1">
          <mxGeometry x="375" y="190" width="100" height="40" as="geometry" />
        </mxCell>
        <mxCell id="ebHh1HvQFMSa12n-kMiA-11" value="&lt;font style=&quot;font-size: 13px;&quot;&gt;Delete Button&lt;/font&gt;" style="text;strokeColor=none;fillColor=none;html=1;fontSize=24;fontStyle=1;verticalAlign=middle;align=center;" vertex="1" parent="1">
          <mxGeometry x="560" y="180" width="100" height="40" as="geometry" />
        </mxCell>
        <mxCell id="ebHh1HvQFMSa12n-kMiA-9" value="&lt;font style=&quot;font-size: 12px;&quot;&gt;Completed Button&lt;/font&gt;" style="text;strokeColor=none;fillColor=none;html=1;fontSize=24;fontStyle=1;verticalAlign=middle;align=center;" vertex="1" parent="1">
          <mxGeometry x="190" y="180" width="100" height="40" as="geometry" />
        </mxCell>
        <mxCell id="ebHh1HvQFMSa12n-kMiA-13" value="" style="rounded=0;whiteSpace=wrap;html=1;" vertex="1" parent="1">
          <mxGeometry x="110" y="300" width="690" height="190" as="geometry" />
        </mxCell>
        <mxCell id="ebHh1HvQFMSa12n-kMiA-14" value="Completed" style="text;strokeColor=none;fillColor=none;html=1;fontSize=24;fontStyle=1;verticalAlign=middle;align=center;" vertex="1" parent="1">
          <mxGeometry x="375" y="310" width="100" height="40" as="geometry" />
        </mxCell>
        <mxCell id="ebHh1HvQFMSa12n-kMiA-15" value="" style="rounded=0;whiteSpace=wrap;html=1;" vertex="1" parent="1">
          <mxGeometry x="240" y="400" width="400" height="60" as="geometry" />
        </mxCell>
        <mxCell id="ebHh1HvQFMSa12n-kMiA-16" style="edgeStyle=orthogonalEdgeStyle;rounded=0;orthogonalLoop=1;jettySize=auto;html=1;exitX=0;exitY=0.5;exitDx=0;exitDy=0;entryX=0.073;entryY=0.05;entryDx=0;entryDy=0;entryPerimeter=0;" edge="1" parent="1" source="ebHh1HvQFMSa12n-kMiA-7" target="ebHh1HvQFMSa12n-kMiA-15">
          <mxGeometry relative="1" as="geometry" />
        </mxCell>
        <mxCell id="ebHh1HvQFMSa12n-kMiA-20" value="&lt;font style=&quot;font-size: 13px;&quot;&gt;Checked and Completed To do Items&lt;/font&gt;" style="text;strokeColor=none;fillColor=none;html=1;fontSize=24;fontStyle=1;verticalAlign=middle;align=center;" vertex="1" parent="1">
          <mxGeometry x="375" y="410" width="100" height="40" as="geometry" />
        </mxCell>
        <mxCell id="ebHh1HvQFMSa12n-kMiA-21" value="&lt;font style=&quot;font-size: 12px; font-weight: normal;&quot;&gt;Delete Button&lt;/font&gt;" style="text;strokeColor=none;fillColor=none;html=1;fontSize=24;fontStyle=1;verticalAlign=middle;align=center;" vertex="1" parent="1">
          <mxGeometry x="535" y="410" width="100" height="40" as="geometry" />
        </mxCell>
        <mxCell id="ebHh1HvQFMSa12n-kMiA-22" value="&lt;font style=&quot;font-size: 12px;&quot;&gt;Completed Button Will Bring it down to the completed list&lt;/font&gt;" style="text;strokeColor=none;fillColor=none;html=1;fontSize=24;fontStyle=1;verticalAlign=middle;align=center;" vertex="1" parent="1">
          <mxGeometry x="180" y="340" width="210" height="40" as="geometry" />
        </mxCell>
        <mxCell id="ebHh1HvQFMSa12n-kMiA-25" value="User Stories" style="text;strokeColor=none;fillColor=none;html=1;fontSize=24;fontStyle=1;verticalAlign=middle;align=center;" vertex="1" parent="1">
          <mxGeometry x="110" y="530" width="100" height="40" as="geometry" />
        </mxCell>
        <mxCell id="ebHh1HvQFMSa12n-kMiA-28" value="&lt;font style=&quot;font-size: 16px;&quot;&gt;1. As a user, I want to add items to a list to keep track of items that need to be done&lt;/font&gt;" style="text;strokeColor=none;fillColor=none;html=1;fontSize=24;fontStyle=1;verticalAlign=middle;align=center;" vertex="1" parent="1">
          <mxGeometry x="80" y="580" width="640" height="40" as="geometry" />
        </mxCell>
        <mxCell id="ebHh1HvQFMSa12n-kMiA-30" value="&lt;font style=&quot;font-size: 15px;&quot;&gt;2. As a user, I want a separate list for all my completed items to see what I have completed&lt;/font&gt;" style="text;strokeColor=none;fillColor=none;html=1;fontSize=24;fontStyle=1;verticalAlign=middle;align=center;" vertex="1" parent="1">
          <mxGeometry x="80" y="620" width="660" height="40" as="geometry" />
        </mxCell>
        <mxCell id="ebHh1HvQFMSa12n-kMiA-31" value="&lt;font style=&quot;font-size: 16px;&quot;&gt;3. As a user, I want a delete button so I can delete task that I no longer need&lt;/font&gt;" style="text;strokeColor=none;fillColor=none;html=1;fontSize=24;fontStyle=1;verticalAlign=middle;align=center;" vertex="1" parent="1">
          <mxGeometry x="325" y="670" width="100" height="40" as="geometry" />
        </mxCell>
      </root>
    </mxGraphModel>
  </diagram>
</mxfile>
